<svg width="158" height="41" viewBox="0 0 158 41" fill="none" xmlns="http://www.w3.org/2000/svg">
<path d="M11.2023 40C2.10416 40 0.958984 34.6746 0.958984 30.4877V18.7502C0.958984 13.8587 3.30138 12.0119 7.87835 12.0119H17.7387V0H25.2047V40H11.2023ZM9.78574 17.6636C8.96776 17.6636 8.42491 17.99 8.42491 19.2398V31.0328C8.42491 33.7512 9.94933 34.3482 11.9683 34.3482H17.7425V17.6636H9.78574Z" fill="white"/>
<path d="M31.7451 7.28352V2.01001C31.7451 0.378268 32.5631 0 33.2695 0H40.1889C39.8059 2.39199 39.3709 4.89153 38.9917 7.28352H31.7451ZM31.7451 40V12.0119H39.4267V40H31.7451Z" fill="white"/>
<path d="M64.5458 12.012C67.814 12.012 69.5057 13.4249 69.5057 17.3374V24.5653C69.5057 26.7941 67.9255 28.9673 65.5831 28.9673H53.3766V31.5224C53.3766 32.8278 53.3766 34.5115 56.3734 34.5115H67.9813V40.0001H55.3956C45.9702 40.0001 45.9702 35.2717 45.9702 28.2627V18.7503C45.9702 13.8588 48.3126 12.012 52.8896 12.012H64.5458ZM53.3766 23.9682H61.0062C61.7163 23.9682 62.0398 23.3711 62.0398 22.826V18.2608C62.0398 17.8269 62.0398 17.5006 61.2218 17.5006H55.2283C54.3025 17.5006 53.3766 17.5006 53.3766 19.2399V23.9682Z" fill="white"/>
<path d="M80.4591 12.012H90.1039C94.7887 12.012 99.2578 16.7959 99.2578 19.785V40.0038H91.6283V20.6528C91.6283 19.1323 90.5947 17.7713 88.6315 17.6637H82.5822V40.0001H74.9526V16.9554C74.9526 15.8688 75.172 15.4349 75.5513 15.1605L78.7674 12.4978C79.2619 12.0639 79.9163 12.012 80.4591 12.012Z" fill="white"/>
<path d="M123.288 12.012C126.556 12.012 128.248 13.4249 128.248 17.3374V24.5653C128.248 26.7941 126.668 28.9673 124.325 28.9673H112.119V31.5224C112.119 32.8278 112.119 34.5115 115.116 34.5115H126.723V40.0001H114.138C104.712 40.0001 104.712 35.2717 104.712 28.2627V18.7503C104.712 13.8588 107.055 12.012 111.632 12.012H123.288ZM112.119 23.9682H119.748C120.459 23.9682 120.782 23.3711 120.782 22.826V18.2608C120.782 17.8269 120.782 17.5006 119.964 17.5006H113.97C113.045 17.5006 112.119 17.5006 112.119 19.2399V23.9682Z" fill="white"/>
<path d="M139.201 12.012H148.846C153.531 12.012 158 16.7959 158 19.785V40.0038H150.37V20.6528C150.37 19.1323 149.337 17.7713 147.374 17.6637H141.324V40.0001H133.695V16.9554C133.695 15.8688 133.914 15.4349 134.293 15.1605L137.51 12.4978C138.004 12.0639 138.655 12.012 139.201 12.012Z" fill="white"/>
</svg>
