<svg width="158" height="41" viewBox="0 0 158 41" fill="none" xmlns="http://www.w3.org/2000/svg">
<path d="M10.2433 40C1.14517 40 0 34.6746 0 30.4877V18.7502C0 13.8587 2.3424 12.0119 6.91937 12.0119H16.7798V0H24.2457V40H10.2433ZM8.82675 17.6636C8.00877 17.6636 7.46593 17.99 7.46593 19.2398V31.0328C7.46593 33.7512 8.99035 34.3482 11.0093 34.3482H16.7835V17.6636H8.82675Z" fill="#040000"/>
<path d="M30.7861 7.28352V2.01001C30.7861 0.378268 31.6041 0 32.3105 0H39.2299C38.8469 2.39199 38.4119 4.89153 38.0327 7.28352H30.7861ZM30.7861 40V12.0119H38.4677V40H30.7861Z" fill="#040000"/>
<path d="M63.5868 12.0118C66.855 12.0118 68.5467 13.4248 68.5467 17.3373V24.5651C68.5467 26.794 66.9666 28.9672 64.6242 28.9672H52.4177V31.5223C52.4177 32.8277 52.4177 34.5114 55.4144 34.5114H67.0223V40H54.4366C45.0112 40 45.0112 35.2716 45.0112 28.2625V18.7502C45.0112 13.8587 47.3536 12.0118 51.9306 12.0118H63.5868ZM52.4177 23.9681H60.0472C60.7573 23.9681 61.0808 23.371 61.0808 22.8259V18.2607C61.0808 17.8268 61.0808 17.5004 60.2628 17.5004H54.2693C53.3435 17.5004 52.4177 17.5004 52.4177 19.2397V23.9681V23.9681Z" fill="#040000"/>
<path d="M79.5001 12.0118H89.1449C93.8297 12.0118 98.2988 16.7958 98.2988 19.7849V40.0037H90.6693V20.6527C90.6693 19.1322 89.6357 17.7712 87.6725 17.6636H81.6232V40H73.9937V16.9553C73.9937 15.8687 74.213 15.4348 74.5923 15.1604L77.8084 12.4977C78.3029 12.0638 78.9573 12.0118 79.5001 12.0118Z" fill="#040000"/>
<path d="M122.329 12.0118C125.597 12.0118 127.289 13.4248 127.289 17.3373V24.5651C127.289 26.794 125.709 28.9672 123.366 28.9672H111.16V31.5223C111.16 32.8277 111.16 34.5114 114.157 34.5114H125.765V40H113.179C103.753 40 103.753 35.2716 103.753 28.2625V18.7502C103.753 13.8587 106.096 12.0118 110.673 12.0118H122.329ZM111.16 23.9681H118.789C119.5 23.9681 119.823 23.371 119.823 22.8259V18.2607C119.823 17.8268 119.823 17.5004 119.005 17.5004H113.011C112.086 17.5004 111.16 17.5004 111.16 19.2397V23.9681V23.9681Z" fill="#040000"/>
<path d="M138.242 12.0118H147.887C152.572 12.0118 157.041 16.7958 157.041 19.7849V40.0037H149.412V20.6527C149.412 19.1322 148.378 17.7712 146.415 17.6636H140.365V40H132.736V16.9553C132.736 15.8687 132.955 15.4348 133.334 15.1604L136.551 12.4977C137.045 12.0638 137.696 12.0118 138.242 12.0118Z" fill="#040000"/>
</svg>
